PathFileType  4	(X/Y/Z) C:\Users\antoi\Documents\MyRepositories\mobilecap\ResultsAnalysis
DataRate	CameraRate	NumFrames	NumMarkers	Units	OrigDataRate	OrigDataStartFrame	OrigNumFrames
100.0	100.0	5	51	mm	100.0	1	154
Frame#	Time	r_knee			r_shank_antsup			r_ankle			r_calc			r_5meta			r_toe			L_knee			L_shank_antsup			L_ankle			L_calc			L_5meta			L_toe			r_sh2			r_sh3			r_sh4			L_sh2			L_sh3			r_thigh1			r_thigh2			r_thigh3			r_thigh4			r_thigh5			L_thigh1			L_thigh2			L_thigh3			L_thigh4			r.ASIS			r.PSIS			L.ASIS			L.PSIS			C7			R_Shoulder			L_Shoulder			R_Sternum			L_Sternum			R_humerus			R_elbow_med			R_elbow_lat			R_forearm			R_wrist_radius			R_wrist_ulna			L_humerus			L_elbow_med			L_elbow_lat			L_forearm			L_wrist_radius			L_wrist_ulna			R_HJC			L_HJC			R_HJC_reg			L_HJC_reg			
		X1	Y1	Z1	X2	Y2	Z2	X3	Y3	Z3	X4	Y4	Z4	X5	Y5	Z5	X6	Y6	Z6	X7	Y7	Z7	X8	Y8	Z8	X9	Y9	Z9	X10	Y10	Z10	X11	Y11	Z11	X12	Y12	Z12	X13	Y13	Z13	X14	Y14	Z14	X15	Y15	Z15	X16	Y16	Z16	X17	Y17	Z17	X18	Y18	Z18	X19	Y19	Z19	X20	Y20	Z20	X21	Y21	Z21	X22	Y22	Z22	X23	Y23	Z23	X24	Y24	Z24	X25	Y25	Z25	X26	Y26	Z26	X27	Y27	Z27	X28	Y28	Z28	X29	Y29	Z29	X30	Y30	Z30	X31	Y31	Z31	X32	Y32	Z32	X33	Y33	Z33	X34	Y34	Z34	X35	Y35	Z35	X36	Y36	Z36	X37	Y37	Z37	X38	Y38	Z38	X39	Y39	Z39	X40	Y40	Z40	X41	Y41	Z41	X42	Y42	Z42	X43	Y43	Z43	X44	Y44	Z44	X45	Y45	Z45	X46	Y46	Z46	X47	Y47	Z47	X48	Y48	Z48	X49	Y49	Z49	X50	Y50	Z50	X51	Y51	Z51	

1	0.00000000	-67.39496	459.43430	-117.81902	-14.20732	422.07526	-120.24887	89.82054	98.34328	-140.36868	57.00445	50.31087	-191.78973	207.90182	109.17224	-118.48341	229.18198	158.24690	-164.77499	-401.58620	459.64631	-344.08033	-396.34558	368.37968	-325.14325	-575.38088	113.89286	-306.39428	-638.59727	89.84505	-263.18604	-488.68385	41.26977	-338.45308	-434.91088	48.41721	-285.73960	22.67256	315.09542	-114.58333	-83.45595	400.30189	-93.78546	-54.81128	285.89121	-95.97298	-462.21737	413.58050	-367.64350	-519.88371	305.33832	-368.27868	-118.19076	700.10857	-67.41966	-75.76790	597.94358	-89.06252	-124.57615	550.60850	-82.22987	-225.16974	652.67291	-66.70696	-178.12469	548.21832	-101.51380	-271.67578	703.41622	-419.34381	-308.91872	574.64016	-380.55520	-378.09136	732.07673	-411.16338	-413.95919	615.35311	-350.83420	-136.74105	890.13739	-147.49763	-359.49588	920.46842	-177.36035	-174.40377	884.88781	-367.36173	-370.76066	924.72292	-256.69532	-261.73279	1356.73392	-279.97677	-195.02147	1334.81951	-134.18813	-227.15650	1303.56227	-419.89718	-138.20453	1282.76583	-259.31603	-143.79982	1279.06026	-299.19091	-185.94498	1228.22478	-57.56666	-309.60483	1042.91715	-31.89317	-268.99290	1054.52443	19.99703	-213.14679	978.52943	38.48943	-188.36916	835.02766	56.01005	-214.75244	839.07403	84.69462	-234.23035	1193.26469	-479.67180	-284.90499	974.24638	-437.84349	-270.04056	991.57641	-499.95437	-208.54164	907.63269	-526.02983	-159.11965	788.97848	-524.51380	-195.82003	777.32880	-540.01590	-220.42810	803.76855	-135.79702	-259.85698	803.86391	-339.52311	-215.01471	813.75378	-171.08687	-235.68775	821.56151	-316.68262	
2	0.01000000	-54.55393	457.28405	-119.71727	-2.35879	418.39869	-121.97453	93.81400	94.51530	-143.76618	60.17471	47.99253	-194.52410	212.40009	101.62168	-120.78716	235.50693	149.46466	-167.68865	-392.06534	459.67732	-345.06631	-388.83688	368.39447	-326.72223	-572.67997	116.82829	-307.86529	-636.40218	94.78874	-264.18398	-488.07256	40.90863	-338.79951	-433.94639	47.52463	-286.48611	31.81507	310.59858	-116.80670	-72.22423	398.08327	-96.21476	-45.95048	283.23746	-99.39851	-453.75449	415.11582	-368.46797	-513.85399	308.15740	-369.15747	-104.64367	698.31658	-68.17946	-62.03255	596.02268	-90.24039	-110.98471	548.82366	-83.86583	-211.13874	651.06879	-67.87332	-164.50751	546.84912	-103.45103	-259.72791	702.13440	-420.20075	-298.05129	573.70972	-381.55469	-365.67371	731.92506	-411.31753	-402.40016	615.34899	-351.06453	-122.47477	888.46013	-148.25918	-345.38318	918.61703	-177.51545	-161.01068	882.83181	-368.29170	-356.55648	922.93318	-256.60177	-249.42453	1355.42730	-276.84870	-182.64613	1332.24982	-131.26621	-214.60119	1303.78004	-417.26954	-125.48191	1281.98294	-257.08583	-131.03060	1278.36677	-296.89220	-173.36909	1225.05266	-55.56907	-296.38558	1039.00218	-32.01033	-256.18452	1050.35093	20.08981	-200.20557	974.54215	38.60827	-174.73870	831.20696	55.25855	-201.25072	834.76423	83.83892	-221.89987	1194.02834	-478.14815	-274.96389	975.41924	-438.30157	-259.48735	992.83658	-500.14238	-199.17290	908.40482	-526.87902	-151.44620	789.07406	-526.34558	-188.05228	777.97984	-542.04776	-206.05253	802.05672	-136.25586	-246.26162	801.88417	-339.82615	-201.14625	811.63347	-171.95610	-221.74673	819.59254	-317.77512	
3	0.02000000	-41.89964	455.21303	-121.47617	9.48532	414.96116	-123.65535	98.20079	90.91039	-146.91470	63.41511	46.13117	-196.98963	217.09341	94.08291	-123.25228	242.06317	140.57055	-170.79750	-382.18796	459.69801	-346.16913	-381.01116	368.38837	-328.45694	-569.81334	119.91677	-309.49785	-633.97694	99.94416	-265.33083	-487.39131	40.58677	-339.17583	-432.96079	46.60673	-287.24520	41.09947	306.41213	-118.95702	-60.94310	396.03382	-98.50139	-36.97468	280.82349	-102.57098	-444.97935	416.69084	-369.35543	-507.50918	311.04895	-370.15235	-91.05606	696.53409	-68.77507	-48.44020	594.09497	-91.26506	-97.65344	547.09136	-85.41934	-197.21523	649.66358	-69.06429	-151.07315	545.60006	-105.35364	-247.56266	700.94298	-421.05414	-286.90979	572.82365	-382.61798	-353.05571	731.77413	-411.47180	-390.59249	615.32656	-351.33262	-108.10086	886.89895	-148.96264	-331.14512	916.91376	-177.63889	-147.37928	880.89874	-369.16475	-342.24216	921.26636	-256.51940	-237.03322	1354.22121	-273.67896	-170.19503	1329.77836	-128.30245	-201.97643	1304.10748	-414.59274	-112.67916	1281.29024	-254.77575	-118.17760	1277.81162	-294.54396	-160.70979	1221.95720	-53.53489	-283.06322	1035.17209	-32.07616	-243.25731	1046.26992	20.22584	-187.16369	970.61454	38.73379	-161.04535	827.42606	54.49401	-187.66036	830.51714	82.96722	-209.50005	1194.93303	-476.55590	-264.90315	976.68991	-438.71619	-248.87673	994.24725	-500.28880	-189.73840	909.33213	-527.68648	-143.72826	789.31037	-528.13658	-180.25866	778.79325	-544.04464	-191.57127	800.46964	-136.66717	-232.48791	800.03284	-340.09643	-187.11921	809.68491	-172.73694	-207.66216	817.74340	-318.76638	
4	0.03000000	-29.52760	453.33985	-122.96596	21.38883	411.98912	-125.24707	103.20128	87.72723	-149.61193	66.75827	45.05407	-198.98393	222.07112	86.56454	-125.92754	248.96711	131.47972	-174.16034	-371.63660	459.68353	-347.49039	-372.57036	368.31971	-330.47854	-566.62417	123.28312	-311.41437	-631.11991	105.49709	-266.74602	-486.57660	40.33362	-339.60527	-431.92875	45.64251	-288.02780	50.68529	302.81030	-120.96171	-49.49914	394.34301	-100.48435	-27.72670	278.86890	-105.22697	-435.59027	418.31144	-370.37544	-500.55924	314.06016	-371.36312	-77.40645	694.81939	-69.08554	-35.08858	592.19910	-92.00630	-84.74953	545.50317	-86.80708	-183.47494	648.63938	-70.27645	-137.94868	544.59380	-107.15973	-234.99444	699.91460	-421.89770	-275.25212	572.01156	-383.80149	-340.07192	731.61947	-411.62313	-378.31508	615.24735	-351.67589	-93.55644	885.55637	-149.56240	-316.69989	915.49463	-177.71322	-133.34723	879.18886	-369.93702	-327.74001	919.82903	-256.46156	-224.48230	1353.21034	-270.43286	-157.60123	1327.49060	-125.26075	-189.22093	1304.64583	-411.82842	-99.72466	1280.77286	-252.32570	-105.16833	1277.51234	-292.10561	-147.89261	1219.00899	-51.43785	-269.54895	1031.50426	-32.05185	-230.10803	1042.36513	20.43765	-173.92739	966.80503	38.86623	-147.22721	823.72805	53.70046	-173.90226	826.39246	82.06141	-196.97713	1196.10145	-474.83773	-254.63233	978.15710	-439.05031	-238.15078	995.93894	-500.35643	-180.17748	910.54868	-528.41609	-135.93154	789.80947	-529.85058	-172.40941	779.90765	-545.97513	-176.92283	799.12035	-136.99135	-218.41641	798.41678	-340.30648	-172.84149	808.06415	-173.35681	-193.34039	816.11183	-319.57711	
5	0.04000000	-17.39443	451.83514	-124.08048	33.49462	409.67303	-126.70887	108.76853	85.11528	-151.73340	70.17026	44.88532	-200.40924	227.25581	79.09941	-128.69558	256.14847	122.18468	-177.63646	-360.16136	459.58089	-349.10432	-363.25596	368.11603	-332.87371	-562.96581	127.00320	-313.66894	-627.66748	111.58987	-268.49671	-485.57739	40.16956	-340.10021	-430.81483	44.62722	-288.84211	60.72362	299.99614	-122.75370	-37.70628	393.21674	-101.98674	-18.02015	277.55912	-107.10834	-425.30866	419.92693	-371.60663	-492.75934	317.19364	-372.85982	-63.70416	693.30486	-69.05994	-22.00144	590.44945	-92.37757	-72.29623	544.20371	-87.94557	-169.94659	648.14284	-71.45909	-125.16973	543.95242	-108.76662	-221.89864	699.08891	-422.72034	-262.89470	571.27615	-385.14628	-326.62237	731.44274	-411.76555	-365.40028	615.03923	-352.12963	-78.85726	884.51497	-150.03288	-302.04680	914.47175	-177.74775	-118.88266	877.76555	-370.58381	-313.03564	918.69844	-256.44920	-211.71853	1352.47664	-267.08980	-144.82164	1325.45178	-122.11940	-176.29768	1305.47883	-408.95711	-86.57359	1280.50413	-249.70898	-91.95909	1277.54967	-289.55304	-134.86739	1216.26937	-49.27004	-255.78753	1028.06577	-31.91870	-216.66842	1038.70680	20.73917	-160.42472	963.17165	38.99555	-133.23048	820.16462	52.85850	-159.92273	822.44711	81.10225	-184.31233	1197.62274	-472.95781	-244.10880	979.91294	-439.27675	-227.26154	998.00553	-500.31656	-170.44531	912.15141	-529.04241	-128.03931	790.66258	-531.46057	-164.47259	781.42235	-547.81560	-162.12522	798.10316	-137.20225	-204.02834	797.10610	-340.43800	-158.33382	806.89919	-173.76992	-178.77376	814.75990	-320.16330	
